<svg width="119" height="33" viewBox="0 0 119 33" fill="none" xmlns="http://www.w3.org/2000/svg">
<g clip-path="url(#clip0_1099_8960)">
<path d="M46.6736 1.1543H47.4268L47.4352 6.20236H46.9032L46.8948 1.83841H46.8808L44.6268 6.20236H44.1396L41.88 1.83289H41.866L41.8744 6.20236H41.3424L41.334 1.1543H42.1096L44.3916 5.54584L46.6736 1.1543Z" fill="white"/>
<path d="M52.224 4.91665C52.0168 5.56766 51.4484 6.20487 50.2136 6.20487C48.6932 6.20487 48.1836 5.15112 48.1836 4.25185C48.1836 3.22569 48.822 2.29883 50.2136 2.29883C51.1684 2.29883 52.3164 2.71536 52.3164 4.37874H48.7128C48.7128 5.14285 49.2644 5.76351 50.2136 5.76351C51.104 5.76351 51.4988 5.47938 51.692 4.91389H52.224V4.91665ZM51.7872 3.98427C51.636 3.07949 50.9612 2.74019 50.25 2.74019C49.5388 2.74019 48.8276 3.07949 48.7128 3.98427H51.7844H51.7872Z" fill="white"/>
<path d="M56.4003 5.35453H56.3863C56.2351 5.66624 55.7759 6.20415 54.8659 6.20415C53.3455 6.20415 52.8359 5.1504 52.8359 4.25113C52.8359 3.22497 53.4743 2.29811 54.8659 2.29811C55.5771 2.29811 56.1427 2.67878 56.3863 3.14773H56.4003V0.996094H56.9323L56.9407 6.08829H56.4087L56.4003 5.35177V5.35453ZM54.8631 2.73671C54.0231 2.73671 53.3623 3.316 53.3623 4.25113C53.3623 4.98765 53.7795 5.76555 54.8631 5.76555C55.7451 5.76555 56.4283 5.21385 56.4283 4.25113C56.4283 3.4953 55.9467 2.73671 54.8631 2.73671Z" fill="white"/>
<path d="M57.7363 1.11133H58.2683V1.88923H57.7363V1.11133ZM57.7363 2.52644H58.2683L58.2767 6.20353H57.7447L57.7363 2.52644Z" fill="white"/>
<path d="M62.8689 4.77206C62.7765 5.25204 62.3313 6.20097 60.9817 6.20097C59.6321 6.20097 58.8789 5.40927 58.8789 4.24794C58.8789 3.08661 59.5677 2.29492 60.9817 2.29492C62.2669 2.29492 62.7485 3.0811 62.8409 3.61073H62.3089C62.1437 2.98179 61.6425 2.73352 60.9817 2.73352C59.9205 2.73352 59.4109 3.39832 59.4109 4.24794C59.4109 5.16101 59.9709 5.76236 60.9817 5.76236C61.7629 5.76236 62.2025 5.34583 62.3369 4.77206H62.8689Z" fill="white"/>
<path d="M63.4289 3.54291C63.5073 2.77329 63.9301 2.29883 65.2097 2.29883C66.4893 2.29883 66.9177 2.6795 66.9177 3.38844V5.31112C66.9177 5.61455 67.0045 5.72213 67.2117 5.72213C67.3041 5.72213 67.3993 5.71386 67.4917 5.70834V6.06143C67.3853 6.0835 67.2201 6.11936 67.0465 6.11936C66.5089 6.11936 66.4725 5.75799 66.4725 5.46835H66.4585C66.2933 5.70834 65.9349 6.20487 64.7141 6.20487C64.0757 6.20487 63.2637 5.92902 63.2637 5.10147C63.2637 4.11117 64.3053 3.98428 65.1229 3.94841C66.2933 3.89324 66.4305 3.82152 66.4305 3.46016C66.4305 2.92225 66.0777 2.73743 65.1957 2.73743C64.3137 2.73743 63.9553 2.94984 63.9189 3.54291H63.4317H63.4289ZM66.4305 4.10841C66.2093 4.25737 65.8201 4.29323 64.7729 4.38426C64.1485 4.44219 63.7957 4.61873 63.7957 5.06285C63.7957 5.63662 64.2969 5.80489 64.8737 5.80489C65.5905 5.80489 66.4305 5.42422 66.4305 4.66563V4.10565V4.10841Z" fill="white"/>
<path d="M67.8281 1.11133H68.3601L68.3685 6.20353H67.8365L67.8281 1.11133Z" fill="white"/>
<path d="M73.9372 3.50154C73.8 2.90846 73.4276 2.73743 72.652 2.73743C72.1004 2.73743 71.574 2.8588 71.574 3.36637C71.574 3.74153 71.8316 3.82704 72.96 3.97324C74.1024 4.1222 74.5756 4.32081 74.5756 5.03527C74.5756 5.74972 73.9792 6.20211 72.8032 6.20211C71.6272 6.20211 70.916 5.82144 70.916 4.93596H71.4032C71.4956 5.55111 71.8484 5.76351 72.8032 5.76351C73.5424 5.76351 74.0436 5.61455 74.0436 5.06285C74.0436 4.70149 73.7776 4.53322 72.6156 4.42012C71.4536 4.30702 71.0448 4.03944 71.0448 3.38844C71.0448 2.73743 71.5684 2.29883 72.652 2.29883C73.8588 2.29883 74.3684 2.72915 74.4244 3.50154H73.9372Z" fill="white"/>
<path d="M75.5087 1.30859H76.0407V2.46717H77.0963V2.86439H76.0407V5.29739C76.0407 5.61462 76.1415 5.76358 76.5727 5.76358C76.8303 5.76358 76.9899 5.74151 77.0963 5.7222V6.1608C76.8947 6.18839 76.6875 6.20218 76.5139 6.20218C75.6823 6.20218 75.5087 5.88495 75.5087 5.28912V2.86439H74.7051V2.46717H75.5087V1.30859Z" fill="white"/>
<path d="M79.6637 2.29883C81.1001 2.29883 81.7805 3.22569 81.7805 4.25185C81.7805 5.27801 81.1001 6.20487 79.6637 6.20487C78.2273 6.20487 77.5469 5.27801 77.5469 4.25185C77.5469 3.22569 78.2301 2.29883 79.6637 2.29883ZM79.6637 5.76351C80.6689 5.76351 81.2513 5.1263 81.2513 4.24909C81.2513 3.37189 80.6689 2.73467 79.6637 2.73467C78.6585 2.73467 78.0789 3.37189 78.0789 4.24909C78.0789 5.1263 78.6613 5.76351 79.6637 5.76351Z" fill="white"/>
<path d="M82.4707 2.52521H83.0027V3.36655H83.0167C83.2099 2.93623 83.5627 2.41211 84.4447 2.41211C84.5959 2.41211 84.6827 2.42038 84.7611 2.43969V2.9776C84.5959 2.95002 84.4307 2.93623 84.2739 2.93623C83.6999 2.93623 83.0027 3.2838 83.0027 4.32927L83.0111 6.2023H82.4791L82.4707 2.52521Z" fill="white"/>
<path d="M89.0384 4.91665C88.8312 5.56766 88.2628 6.20487 87.028 6.20487C85.5076 6.20487 84.998 5.15112 84.998 4.25185C84.998 3.22569 85.6364 2.29883 87.028 2.29883C87.9828 2.29883 89.1308 2.71536 89.1308 4.37874H85.5273C85.5273 5.14285 86.0788 5.76351 87.028 5.76351C87.9184 5.76351 88.3132 5.47938 88.5064 4.91389H89.0384V4.91665ZM88.6016 3.98427C88.4504 3.07949 87.7756 2.74019 87.0644 2.74019C86.3532 2.74019 85.6421 3.07949 85.5273 3.98427H88.5989H88.6016Z" fill="white"/>
<path d="M5.2024 32.9062H0V0H5.2024V32.9062Z" fill="white"/>
<path d="M108.979 28.1589H119V33H94.4805V28.2058L101.536 28.1589L103.11 28.2058L94.4805 20.3109V14.1953L108.979 28.1616V28.1589Z" fill="white"/>
<path d="M110.371 28.2058L119 20.3109V14.1953L104.502 28.1616L110.371 28.2085V28.2058Z" fill="white"/>
<path d="M110.878 5.93359C109.229 5.93359 107.717 6.69218 106.742 7.94179C105.768 6.69218 104.256 5.93359 102.607 5.93359C99.7253 5.93359 97.3789 8.2535 97.3789 11.1086C97.3789 12.4492 97.8969 13.7209 98.8377 14.6918L106.21 22.0295L106.742 22.5591L107.274 22.0295L114.507 14.8325C115.531 13.856 116.105 12.5319 116.105 11.1086C116.105 8.2535 113.759 5.93359 110.878 5.93359Z" fill="white"/>
<path d="M41.3327 8.84421V12.3641C41.2851 12.3172 41.2375 12.2675 41.1899 12.2151C40.5795 11.5558 39.8879 10.9738 39.1039 10.5241C37.2475 9.46212 35.1279 8.83594 32.8851 8.83594C26.0615 8.83594 20.6211 14.2895 20.6211 20.9182C20.6211 27.5469 26.0615 33.0004 32.8851 33.0004C35.7971 33.0004 38.4207 32.0129 40.4731 30.3688C40.8063 30.1344 41.0947 29.8061 41.3327 29.5689V33.0004H46.0563V8.84421H41.3327ZM32.8879 28.6751C28.5451 28.6751 25.1095 25.2435 25.1095 21.012C25.1095 16.7804 28.5451 13.2551 32.8879 13.2551C37.2307 13.2551 41.3803 16.7335 41.3803 21.012C41.3803 25.2904 37.1803 28.6751 32.8879 28.6751Z" fill="white"/>
<path d="M84.4069 8.84421V12.3641C84.3593 12.3172 84.3117 12.2675 84.2641 12.2151C83.6537 11.5558 82.9621 10.9738 82.1781 10.5241C80.3217 9.46212 78.2021 8.83594 75.9593 8.83594C69.1357 8.83594 63.6953 14.2895 63.6953 20.9182C63.6953 27.5469 69.1357 33.0004 75.9593 33.0004C78.8713 33.0004 81.4949 32.0129 83.5473 30.3688C83.8805 30.1344 84.1689 29.8061 84.4069 29.5689V33.0004H89.1305V8.84421H84.4069ZM75.9621 28.6751C71.6193 28.6751 68.1837 25.2435 68.1837 21.012C68.1837 16.7804 71.6193 13.2551 75.9621 13.2551C80.3049 13.2551 84.4545 16.7335 84.4545 21.012C84.4545 25.2904 80.2545 28.6751 75.9621 28.6751Z" fill="white"/>
<path d="M15.5619 25.1024V0H10.5527V26.2748C10.5527 26.4651 10.5583 26.6554 10.5723 26.8458C10.9727 31.5932 14.3355 32.8152 17.4715 33V28.534C16.6595 28.2995 15.5619 27.3589 15.5619 25.1024Z" fill="white"/>
<path d="M53.3373 25.102V8.83789H58.3465V26.2744C58.3465 26.4647 58.3409 26.6551 58.3269 26.8454C57.9265 31.5928 54.5637 32.8148 51.4277 32.9996V28.5336C52.2397 28.2991 53.3373 27.3585 53.3373 25.102Z" fill="white"/>
</g>
<defs>
<clipPath id="clip0_1099_8960">
<rect width="119" height="33" fill="white"/>
</clipPath>
</defs>
</svg>
