<svg width="14" height="14" viewBox="0 0 14 14" fill="none" xmlns="http://www.w3.org/2000/svg">
<path d="M6.48261 11.7029C6.80041 11.5111 7.19829 11.5111 7.51608 11.7029L10.1204 13.2747C10.8777 13.7318 11.8119 13.0528 11.6109 12.1914L10.9198 9.22882C10.8355 8.86732 10.9583 8.48886 11.2389 8.2458L13.5413 6.25124C14.2099 5.67203 13.8525 4.57377 12.9711 4.49899L9.94188 4.24199C9.5723 4.21064 9.25044 3.9773 9.1057 3.6358L7.92007 0.838387C7.57548 0.0253584 6.42322 0.025357 6.07863 0.838385L4.893 3.6358C4.74826 3.9773 4.4264 4.21064 4.05682 4.24199L1.02764 4.49899C0.146218 4.57377 -0.211188 5.67203 0.45741 6.25123L2.75981 8.2458C3.04037 8.48886 3.16322 8.86732 3.07889 9.22882L2.38776 12.1914C2.1868 13.0528 3.12103 13.7318 3.87835 13.2747L6.48261 11.7029Z" fill="#F9D342"/>
</svg>
